<svg xmlns="http://www.w3.org/2000/svg" width="448" height="512" viewBox="0 0 448 512">
    <path id="trash-can-solid" d="M160,400a16,16,0,0,1-32,0V192a16,16,0,0,1,32,0Zm80,0a16,16,0,0,1-32,0V192a16,16,0,0,1,32,0Zm80,0a16,16,0,0,1-32,0V192a16,16,0,0,1,32,0ZM317.5,24.94,354.2,80H424a24,24,0,0,1,0,48h-8V432a79.978,79.978,0,0,1-80,80H112a79.991,79.991,0,0,1-80-80V128H24a24,24,0,0,1,0-48H93.82L130.5,24.94A56.052,56.052,0,0,1,177.1,0h93.8a56.055,56.055,0,0,1,46.6,24.94ZM151.5,80h145l-19-28.44A8.034,8.034,0,0,0,270.9,48H177.1c-2.6,0-6,1.34-6.6,3.56ZM80,432a31.985,31.985,0,0,0,32,32H336a31.966,31.966,0,0,0,32-32V128H80Z" fill="#fff"/>
  </svg>
  